<mxfile host="app.diagrams.net" modified="2024-06-21T01:54:47.300Z" agent="Mozilla/5.0 (Macintosh; Intel Mac OS X 10_15_7) AppleWebKit/537.36 (KHTML, like Gecko) Chrome/126.0.0.0 Safari/537.36" etag="iG1w8RXozAA_hxIdgRlc" version="24.6.0" type="github">
  <diagram name="Page-1" id="edf60f1a-56cd-e834-aa8a-f176f3a09ee4">
    <mxGraphModel dx="2074" dy="1146" grid="1" gridSize="10" guides="1" tooltips="1" connect="1" arrows="1" fold="1" page="1" pageScale="1" pageWidth="3300" pageHeight="2339" background="none" math="0" shadow="0">
      <root>
        <mxCell id="0" />
        <mxCell id="1" parent="0" />
        <mxCell id="yU_KCwu2seXqngZKDWk1-6" value="" style="edgeStyle=orthogonalEdgeStyle;rounded=0;orthogonalLoop=1;jettySize=auto;html=1;strokeWidth=2;fontSize=17;" parent="1" source="yU_KCwu2seXqngZKDWk1-4" target="yU_KCwu2seXqngZKDWk1-5" edge="1">
          <mxGeometry relative="1" as="geometry" />
        </mxCell>
        <mxCell id="yU_KCwu2seXqngZKDWk1-4" value="线路算法" style="rounded=0;whiteSpace=wrap;html=1;fontSize=17;" parent="1" vertex="1">
          <mxGeometry x="1320" y="200" width="120" height="60" as="geometry" />
        </mxCell>
        <mxCell id="yU_KCwu2seXqngZKDWk1-11" value="" style="edgeStyle=orthogonalEdgeStyle;shape=connector;rounded=0;orthogonalLoop=1;jettySize=auto;html=1;labelBackgroundColor=default;strokeColor=default;strokeWidth=2;fontFamily=Helvetica;fontSize=17;fontColor=default;endArrow=classic;" parent="1" source="yU_KCwu2seXqngZKDWk1-5" target="yU_KCwu2seXqngZKDWk1-10" edge="1">
          <mxGeometry relative="1" as="geometry" />
        </mxCell>
        <mxCell id="yU_KCwu2seXqngZKDWk1-5" value="数据处理，计算所有点之间的位置关系" style="rounded=0;whiteSpace=wrap;html=1;fontSize=17;" parent="1" vertex="1">
          <mxGeometry x="1320" y="320" width="120" height="60" as="geometry" />
        </mxCell>
        <mxCell id="yU_KCwu2seXqngZKDWk1-13" value="" style="edgeStyle=orthogonalEdgeStyle;shape=connector;rounded=0;orthogonalLoop=1;jettySize=auto;html=1;labelBackgroundColor=default;strokeColor=default;strokeWidth=2;fontFamily=Helvetica;fontSize=17;fontColor=default;endArrow=classic;" parent="1" source="yU_KCwu2seXqngZKDWk1-10" target="yU_KCwu2seXqngZKDWk1-12" edge="1">
          <mxGeometry relative="1" as="geometry" />
        </mxCell>
        <mxCell id="yU_KCwu2seXqngZKDWk1-180" style="edgeStyle=orthogonalEdgeStyle;shape=connector;rounded=0;orthogonalLoop=1;jettySize=auto;html=1;exitX=1;exitY=0.5;exitDx=0;exitDy=0;entryX=0;entryY=0.5;entryDx=0;entryDy=0;labelBackgroundColor=default;strokeColor=default;strokeWidth=2;fontFamily=Helvetica;fontSize=17;fontColor=default;endArrow=classic;" parent="1" source="yU_KCwu2seXqngZKDWk1-10" target="yU_KCwu2seXqngZKDWk1-161" edge="1">
          <mxGeometry relative="1" as="geometry" />
        </mxCell>
        <mxCell id="yU_KCwu2seXqngZKDWk1-10" value="判断变电站个数&lt;div&gt;是否&lt;span style=&quot;background-color: initial;&quot;&gt;大于21&lt;/span&gt;&lt;/div&gt;" style="rhombus;whiteSpace=wrap;html=1;rounded=0;fontSize=17;" parent="1" vertex="1">
          <mxGeometry x="1280" y="420" width="200" height="130" as="geometry" />
        </mxCell>
        <mxCell id="yU_KCwu2seXqngZKDWk1-15" value="" style="edgeStyle=orthogonalEdgeStyle;shape=connector;rounded=0;orthogonalLoop=1;jettySize=auto;html=1;labelBackgroundColor=default;strokeColor=default;strokeWidth=2;fontFamily=Helvetica;fontSize=17;fontColor=default;endArrow=classic;" parent="1" source="yU_KCwu2seXqngZKDWk1-12" target="yU_KCwu2seXqngZKDWk1-14" edge="1">
          <mxGeometry relative="1" as="geometry" />
        </mxCell>
        <mxCell id="yU_KCwu2seXqngZKDWk1-12" value="处理副站连接线路" style="whiteSpace=wrap;html=1;rounded=0;fontSize=17;" parent="1" vertex="1">
          <mxGeometry x="1320" y="610" width="120" height="60" as="geometry" />
        </mxCell>
        <mxCell id="yU_KCwu2seXqngZKDWk1-17" value="" style="edgeStyle=orthogonalEdgeStyle;shape=connector;rounded=0;orthogonalLoop=1;jettySize=auto;html=1;labelBackgroundColor=default;strokeColor=default;strokeWidth=2;fontFamily=Helvetica;fontSize=17;fontColor=default;endArrow=classic;" parent="1" source="yU_KCwu2seXqngZKDWk1-14" target="yU_KCwu2seXqngZKDWk1-16" edge="1">
          <mxGeometry relative="1" as="geometry" />
        </mxCell>
        <mxCell id="yU_KCwu2seXqngZKDWk1-14" value="获取所有副站连接线路" style="whiteSpace=wrap;html=1;rounded=0;fontSize=17;" parent="1" vertex="1">
          <mxGeometry x="1170" y="610" width="120" height="60" as="geometry" />
        </mxCell>
        <mxCell id="yU_KCwu2seXqngZKDWk1-19" value="" style="edgeStyle=orthogonalEdgeStyle;shape=connector;rounded=0;orthogonalLoop=1;jettySize=auto;html=1;labelBackgroundColor=default;strokeColor=default;strokeWidth=2;fontFamily=Helvetica;fontSize=17;fontColor=default;endArrow=classic;" parent="1" source="yU_KCwu2seXqngZKDWk1-16" target="yU_KCwu2seXqngZKDWk1-18" edge="1">
          <mxGeometry relative="1" as="geometry" />
        </mxCell>
        <mxCell id="yU_KCwu2seXqngZKDWk1-179" style="edgeStyle=orthogonalEdgeStyle;shape=connector;rounded=0;orthogonalLoop=1;jettySize=auto;html=1;exitX=0.5;exitY=1;exitDx=0;exitDy=0;entryX=0;entryY=0.5;entryDx=0;entryDy=0;labelBackgroundColor=default;strokeColor=default;strokeWidth=2;fontFamily=Helvetica;fontSize=17;fontColor=default;endArrow=classic;" parent="1" source="yU_KCwu2seXqngZKDWk1-16" target="yU_KCwu2seXqngZKDWk1-20" edge="1">
          <mxGeometry relative="1" as="geometry" />
        </mxCell>
        <mxCell id="yU_KCwu2seXqngZKDWk1-16" value="遍历所有副站&lt;div&gt;是否结束&lt;/div&gt;" style="rhombus;whiteSpace=wrap;html=1;rounded=0;fontSize=17;" parent="1" vertex="1">
          <mxGeometry x="980" y="550" width="150" height="180" as="geometry" />
        </mxCell>
        <mxCell id="yU_KCwu2seXqngZKDWk1-30" value="" style="edgeStyle=orthogonalEdgeStyle;shape=connector;rounded=0;orthogonalLoop=1;jettySize=auto;html=1;labelBackgroundColor=default;strokeColor=default;strokeWidth=2;fontFamily=Helvetica;fontSize=17;fontColor=default;endArrow=classic;" parent="1" source="yU_KCwu2seXqngZKDWk1-18" target="yU_KCwu2seXqngZKDWk1-29" edge="1">
          <mxGeometry relative="1" as="geometry" />
        </mxCell>
        <mxCell id="OxgRV3SmWeZWbK5WFOAy-1" style="edgeStyle=orthogonalEdgeStyle;rounded=0;orthogonalLoop=1;jettySize=auto;html=1;exitX=0.5;exitY=0;exitDx=0;exitDy=0;entryX=0.5;entryY=0;entryDx=0;entryDy=0;strokeWidth=2;" edge="1" parent="1" source="yU_KCwu2seXqngZKDWk1-18" target="yU_KCwu2seXqngZKDWk1-16">
          <mxGeometry relative="1" as="geometry" />
        </mxCell>
        <mxCell id="yU_KCwu2seXqngZKDWk1-18" value="遍历所有线路是否结束" style="rhombus;whiteSpace=wrap;html=1;rounded=0;fontSize=17;" parent="1" vertex="1">
          <mxGeometry x="750" y="570" width="140" height="140" as="geometry" />
        </mxCell>
        <mxCell id="yU_KCwu2seXqngZKDWk1-44" style="edgeStyle=orthogonalEdgeStyle;shape=connector;rounded=0;orthogonalLoop=1;jettySize=auto;html=1;entryX=0.5;entryY=0;entryDx=0;entryDy=0;labelBackgroundColor=default;strokeColor=default;strokeWidth=2;fontFamily=Helvetica;fontSize=17;fontColor=default;endArrow=classic;" parent="1" source="yU_KCwu2seXqngZKDWk1-20" target="yU_KCwu2seXqngZKDWk1-43" edge="1">
          <mxGeometry relative="1" as="geometry" />
        </mxCell>
        <mxCell id="yU_KCwu2seXqngZKDWk1-20" value="计算当前线路组位置信息至校验层" style="whiteSpace=wrap;html=1;rounded=0;fontSize=17;" parent="1" vertex="1">
          <mxGeometry x="1320" y="720" width="120" height="70" as="geometry" />
        </mxCell>
        <mxCell id="yU_KCwu2seXqngZKDWk1-24" value="是" style="text;html=1;align=center;verticalAlign=middle;resizable=0;points=[];autosize=1;strokeColor=none;fillColor=none;fontSize=17;fontFamily=Helvetica;fontColor=default;" parent="1" vertex="1">
          <mxGeometry x="1000" y="710" width="40" height="30" as="geometry" />
        </mxCell>
        <mxCell id="yU_KCwu2seXqngZKDWk1-25" value="否" style="text;html=1;align=center;verticalAlign=middle;resizable=0;points=[];autosize=1;strokeColor=none;fillColor=none;fontSize=17;fontFamily=Helvetica;fontColor=default;" parent="1" vertex="1">
          <mxGeometry x="710" y="610" width="40" height="30" as="geometry" />
        </mxCell>
        <mxCell id="yU_KCwu2seXqngZKDWk1-27" value="是" style="text;html=1;align=center;verticalAlign=middle;resizable=0;points=[];autosize=1;strokeColor=none;fillColor=none;fontSize=17;fontFamily=Helvetica;fontColor=default;" parent="1" vertex="1">
          <mxGeometry x="820" y="550" width="40" height="30" as="geometry" />
        </mxCell>
        <mxCell id="yU_KCwu2seXqngZKDWk1-34" value="" style="edgeStyle=orthogonalEdgeStyle;shape=connector;rounded=0;orthogonalLoop=1;jettySize=auto;html=1;labelBackgroundColor=default;strokeColor=default;strokeWidth=2;fontFamily=Helvetica;fontSize=17;fontColor=default;endArrow=classic;" parent="1" source="yU_KCwu2seXqngZKDWk1-29" target="yU_KCwu2seXqngZKDWk1-33" edge="1">
          <mxGeometry relative="1" as="geometry" />
        </mxCell>
        <mxCell id="yU_KCwu2seXqngZKDWk1-29" value="根据线路类型计算位置并获取轨道位置" style="whiteSpace=wrap;html=1;rounded=0;fontSize=17;" parent="1" vertex="1">
          <mxGeometry x="570" y="610" width="120" height="60" as="geometry" />
        </mxCell>
        <mxCell id="yU_KCwu2seXqngZKDWk1-36" value="" style="edgeStyle=orthogonalEdgeStyle;shape=connector;rounded=0;orthogonalLoop=1;jettySize=auto;html=1;labelBackgroundColor=default;strokeColor=default;strokeWidth=2;fontFamily=Helvetica;fontSize=17;fontColor=default;endArrow=classic;" parent="1" source="yU_KCwu2seXqngZKDWk1-33" target="yU_KCwu2seXqngZKDWk1-35" edge="1">
          <mxGeometry relative="1" as="geometry" />
        </mxCell>
        <mxCell id="yU_KCwu2seXqngZKDWk1-33" value="根据线路两端点类型获取偏移位置" style="whiteSpace=wrap;html=1;rounded=0;fontSize=17;" parent="1" vertex="1">
          <mxGeometry x="570" y="770" width="120" height="60" as="geometry" />
        </mxCell>
        <mxCell id="yU_KCwu2seXqngZKDWk1-39" style="edgeStyle=orthogonalEdgeStyle;shape=connector;rounded=0;orthogonalLoop=1;jettySize=auto;html=1;exitX=0.5;exitY=0;exitDx=0;exitDy=0;entryX=0.5;entryY=1;entryDx=0;entryDy=0;labelBackgroundColor=default;strokeColor=default;strokeWidth=2;fontFamily=Helvetica;fontSize=17;fontColor=default;endArrow=classic;" parent="1" source="yU_KCwu2seXqngZKDWk1-35" target="yU_KCwu2seXqngZKDWk1-18" edge="1">
          <mxGeometry relative="1" as="geometry" />
        </mxCell>
        <mxCell id="yU_KCwu2seXqngZKDWk1-35" value="计算得出当前线路所有拐点位置，并记录相关数据" style="whiteSpace=wrap;html=1;rounded=0;fontSize=17;" parent="1" vertex="1">
          <mxGeometry x="750" y="770" width="140" height="60" as="geometry" />
        </mxCell>
        <mxCell id="yU_KCwu2seXqngZKDWk1-38" value="否" style="text;html=1;align=center;verticalAlign=middle;resizable=0;points=[];autosize=1;strokeColor=none;fillColor=none;fontSize=17;fontFamily=Helvetica;fontColor=default;" parent="1" vertex="1">
          <mxGeometry x="890" y="640" width="40" height="30" as="geometry" />
        </mxCell>
        <mxCell id="yU_KCwu2seXqngZKDWk1-42" value="否" style="text;html=1;align=center;verticalAlign=middle;resizable=0;points=[];autosize=1;strokeColor=none;fillColor=none;fontSize=17;fontFamily=Helvetica;fontColor=default;" parent="1" vertex="1">
          <mxGeometry x="1380" y="560" width="40" height="30" as="geometry" />
        </mxCell>
        <mxCell id="yU_KCwu2seXqngZKDWk1-46" value="" style="edgeStyle=orthogonalEdgeStyle;shape=connector;rounded=0;orthogonalLoop=1;jettySize=auto;html=1;labelBackgroundColor=default;strokeColor=default;strokeWidth=2;fontFamily=Helvetica;fontSize=17;fontColor=default;endArrow=classic;" parent="1" source="yU_KCwu2seXqngZKDWk1-43" target="yU_KCwu2seXqngZKDWk1-45" edge="1">
          <mxGeometry relative="1" as="geometry" />
        </mxCell>
        <mxCell id="yU_KCwu2seXqngZKDWk1-48" value="" style="edgeStyle=orthogonalEdgeStyle;shape=connector;rounded=0;orthogonalLoop=1;jettySize=auto;html=1;labelBackgroundColor=default;strokeColor=default;strokeWidth=2;fontFamily=Helvetica;fontSize=17;fontColor=default;endArrow=classic;" parent="1" source="yU_KCwu2seXqngZKDWk1-43" target="yU_KCwu2seXqngZKDWk1-47" edge="1">
          <mxGeometry relative="1" as="geometry" />
        </mxCell>
        <mxCell id="yU_KCwu2seXqngZKDWk1-43" value="判断是否多层布局" style="rhombus;whiteSpace=wrap;html=1;fontFamily=Helvetica;fontSize=17;fontColor=default;" parent="1" vertex="1">
          <mxGeometry x="1310" y="820" width="140" height="110" as="geometry" />
        </mxCell>
        <mxCell id="yU_KCwu2seXqngZKDWk1-120" value="" style="edgeStyle=orthogonalEdgeStyle;shape=connector;rounded=0;orthogonalLoop=1;jettySize=auto;html=1;labelBackgroundColor=default;strokeColor=default;strokeWidth=2;fontFamily=Helvetica;fontSize=17;fontColor=default;endArrow=classic;" parent="1" source="yU_KCwu2seXqngZKDWk1-45" target="yU_KCwu2seXqngZKDWk1-119" edge="1">
          <mxGeometry relative="1" as="geometry" />
        </mxCell>
        <mxCell id="yU_KCwu2seXqngZKDWk1-45" value="获取内外层所有与主战连接线路" style="whiteSpace=wrap;html=1;fontSize=17;" parent="1" vertex="1">
          <mxGeometry x="1130" y="842.5" width="120" height="65" as="geometry" />
        </mxCell>
        <mxCell id="yU_KCwu2seXqngZKDWk1-54" value="" style="edgeStyle=orthogonalEdgeStyle;shape=connector;rounded=0;orthogonalLoop=1;jettySize=auto;html=1;labelBackgroundColor=default;strokeColor=default;strokeWidth=2;fontFamily=Helvetica;fontSize=17;fontColor=default;endArrow=classic;" parent="1" source="yU_KCwu2seXqngZKDWk1-47" target="yU_KCwu2seXqngZKDWk1-53" edge="1">
          <mxGeometry relative="1" as="geometry" />
        </mxCell>
        <mxCell id="yU_KCwu2seXqngZKDWk1-47" value="获取外层所有与主战连接线路" style="whiteSpace=wrap;html=1;fontSize=17;" parent="1" vertex="1">
          <mxGeometry x="1320" y="980" width="120" height="70" as="geometry" />
        </mxCell>
        <mxCell id="yU_KCwu2seXqngZKDWk1-49" value="否" style="text;html=1;align=center;verticalAlign=middle;resizable=0;points=[];autosize=1;strokeColor=none;fillColor=none;fontSize=17;fontFamily=Helvetica;fontColor=default;" parent="1" vertex="1">
          <mxGeometry x="1280" y="842.5" width="40" height="30" as="geometry" />
        </mxCell>
        <mxCell id="yU_KCwu2seXqngZKDWk1-50" value="是" style="text;html=1;align=center;verticalAlign=middle;resizable=0;points=[];autosize=1;strokeColor=none;fillColor=none;fontSize=17;fontFamily=Helvetica;fontColor=default;" parent="1" vertex="1">
          <mxGeometry x="1370" y="925" width="40" height="30" as="geometry" />
        </mxCell>
        <mxCell id="yU_KCwu2seXqngZKDWk1-64" style="edgeStyle=orthogonalEdgeStyle;shape=connector;rounded=0;orthogonalLoop=1;jettySize=auto;html=1;exitX=0.5;exitY=0;exitDx=0;exitDy=0;entryX=0.5;entryY=1;entryDx=0;entryDy=0;labelBackgroundColor=default;strokeColor=default;strokeWidth=2;fontFamily=Helvetica;fontSize=17;fontColor=default;endArrow=classic;" parent="1" source="yU_KCwu2seXqngZKDWk1-53" target="yU_KCwu2seXqngZKDWk1-61" edge="1">
          <mxGeometry relative="1" as="geometry" />
        </mxCell>
        <mxCell id="yU_KCwu2seXqngZKDWk1-81" style="edgeStyle=orthogonalEdgeStyle;shape=connector;rounded=0;orthogonalLoop=1;jettySize=auto;html=1;exitX=0.5;exitY=1;exitDx=0;exitDy=0;entryX=1;entryY=0.5;entryDx=0;entryDy=0;labelBackgroundColor=default;strokeColor=default;strokeWidth=2;fontFamily=Helvetica;fontSize=17;fontColor=default;endArrow=classic;" parent="1" source="yU_KCwu2seXqngZKDWk1-53" target="yU_KCwu2seXqngZKDWk1-70" edge="1">
          <mxGeometry relative="1" as="geometry" />
        </mxCell>
        <mxCell id="yU_KCwu2seXqngZKDWk1-53" value="遍历获取到线路是否结束" style="rhombus;whiteSpace=wrap;html=1;fontSize=17;" parent="1" vertex="1">
          <mxGeometry x="1505" y="945" width="140" height="140" as="geometry" />
        </mxCell>
        <mxCell id="yU_KCwu2seXqngZKDWk1-97" value="" style="edgeStyle=orthogonalEdgeStyle;shape=connector;rounded=0;orthogonalLoop=1;jettySize=auto;html=1;labelBackgroundColor=default;strokeColor=default;strokeWidth=2;fontFamily=Helvetica;fontSize=17;fontColor=default;endArrow=classic;" parent="1" source="yU_KCwu2seXqngZKDWk1-55" target="yU_KCwu2seXqngZKDWk1-96" edge="1">
          <mxGeometry relative="1" as="geometry" />
        </mxCell>
        <mxCell id="yU_KCwu2seXqngZKDWk1-55" value="获取左右两侧乱层线路并计算" style="whiteSpace=wrap;html=1;fontSize=17;" parent="1" vertex="1">
          <mxGeometry x="1320" y="1190" width="120" height="60" as="geometry" />
        </mxCell>
        <mxCell id="yU_KCwu2seXqngZKDWk1-57" value="是" style="text;html=1;align=center;verticalAlign=middle;resizable=0;points=[];autosize=1;strokeColor=none;fillColor=none;fontSize=17;fontFamily=Helvetica;fontColor=default;" parent="1" vertex="1">
          <mxGeometry x="1570" y="1085" width="40" height="30" as="geometry" />
        </mxCell>
        <mxCell id="yU_KCwu2seXqngZKDWk1-78" style="edgeStyle=orthogonalEdgeStyle;shape=connector;rounded=0;orthogonalLoop=1;jettySize=auto;html=1;exitX=1;exitY=0.5;exitDx=0;exitDy=0;labelBackgroundColor=default;strokeColor=default;strokeWidth=2;fontFamily=Helvetica;fontSize=17;fontColor=default;endArrow=classic;" parent="1" source="yU_KCwu2seXqngZKDWk1-61" target="yU_KCwu2seXqngZKDWk1-62" edge="1">
          <mxGeometry relative="1" as="geometry" />
        </mxCell>
        <mxCell id="yU_KCwu2seXqngZKDWk1-61" value="根据线路类型与线路位置关系计算位置并获取轨道位置" style="whiteSpace=wrap;html=1;rounded=0;fontSize=17;" parent="1" vertex="1">
          <mxGeometry x="1502.5" y="830" width="145" height="75" as="geometry" />
        </mxCell>
        <mxCell id="yU_KCwu2seXqngZKDWk1-79" style="edgeStyle=orthogonalEdgeStyle;shape=connector;rounded=0;orthogonalLoop=1;jettySize=auto;html=1;exitX=0.5;exitY=1;exitDx=0;exitDy=0;entryX=0.5;entryY=0;entryDx=0;entryDy=0;labelBackgroundColor=default;strokeColor=default;strokeWidth=2;fontFamily=Helvetica;fontSize=17;fontColor=default;endArrow=classic;" parent="1" source="yU_KCwu2seXqngZKDWk1-62" target="yU_KCwu2seXqngZKDWk1-67" edge="1">
          <mxGeometry relative="1" as="geometry" />
        </mxCell>
        <mxCell id="yU_KCwu2seXqngZKDWk1-62" value="根据线路两端点类型获取偏移位置" style="whiteSpace=wrap;html=1;rounded=0;fontSize=17;" parent="1" vertex="1">
          <mxGeometry x="1855" y="833.75" width="130" height="67.5" as="geometry" />
        </mxCell>
        <mxCell id="yU_KCwu2seXqngZKDWk1-66" value="否" style="text;html=1;align=center;verticalAlign=middle;resizable=0;points=[];autosize=1;strokeColor=none;fillColor=none;fontSize=17;fontFamily=Helvetica;fontColor=default;" parent="1" vertex="1">
          <mxGeometry x="1570" y="917.5" width="40" height="30" as="geometry" />
        </mxCell>
        <mxCell id="yU_KCwu2seXqngZKDWk1-75" style="edgeStyle=orthogonalEdgeStyle;shape=connector;rounded=0;orthogonalLoop=1;jettySize=auto;html=1;exitX=0;exitY=0.5;exitDx=0;exitDy=0;entryX=1;entryY=0.5;entryDx=0;entryDy=0;labelBackgroundColor=default;strokeColor=default;strokeWidth=2;fontFamily=Helvetica;fontSize=17;fontColor=default;endArrow=classic;" parent="1" source="yU_KCwu2seXqngZKDWk1-67" target="yU_KCwu2seXqngZKDWk1-74" edge="1">
          <mxGeometry relative="1" as="geometry" />
        </mxCell>
        <mxCell id="yU_KCwu2seXqngZKDWk1-67" value="计算得出当前线路所有拐点位置并校验，并记录相关数据" style="whiteSpace=wrap;html=1;rounded=0;fontSize=17;" parent="1" vertex="1">
          <mxGeometry x="1850" y="970" width="140" height="90" as="geometry" />
        </mxCell>
        <mxCell id="yU_KCwu2seXqngZKDWk1-82" style="edgeStyle=orthogonalEdgeStyle;shape=connector;rounded=0;orthogonalLoop=1;jettySize=auto;html=1;exitX=0.5;exitY=1;exitDx=0;exitDy=0;entryX=0.5;entryY=0;entryDx=0;entryDy=0;labelBackgroundColor=default;strokeColor=default;strokeWidth=2;fontFamily=Helvetica;fontSize=17;fontColor=default;endArrow=classic;" parent="1" source="yU_KCwu2seXqngZKDWk1-70" target="yU_KCwu2seXqngZKDWk1-55" edge="1">
          <mxGeometry relative="1" as="geometry" />
        </mxCell>
        <mxCell id="yU_KCwu2seXqngZKDWk1-70" value="计算当前线路组位置信息至校验层" style="whiteSpace=wrap;html=1;rounded=0;fontSize=17;" parent="1" vertex="1">
          <mxGeometry x="1320" y="1090" width="120" height="60" as="geometry" />
        </mxCell>
        <mxCell id="yU_KCwu2seXqngZKDWk1-184" style="edgeStyle=orthogonalEdgeStyle;shape=connector;rounded=0;orthogonalLoop=1;jettySize=auto;html=1;exitX=0;exitY=0.5;exitDx=0;exitDy=0;labelBackgroundColor=default;strokeColor=default;strokeWidth=2;fontFamily=Helvetica;fontSize=17;fontColor=default;endArrow=classic;" parent="1" source="yU_KCwu2seXqngZKDWk1-74" target="yU_KCwu2seXqngZKDWk1-53" edge="1">
          <mxGeometry relative="1" as="geometry" />
        </mxCell>
        <mxCell id="yU_KCwu2seXqngZKDWk1-74" value="更新轨道位置信息" style="rounded=0;whiteSpace=wrap;html=1;fontFamily=Helvetica;fontSize=17;fontColor=default;" parent="1" vertex="1">
          <mxGeometry x="1695" y="985" width="120" height="60" as="geometry" />
        </mxCell>
        <mxCell id="yU_KCwu2seXqngZKDWk1-99" value="" style="edgeStyle=orthogonalEdgeStyle;shape=connector;rounded=0;orthogonalLoop=1;jettySize=auto;html=1;labelBackgroundColor=default;strokeColor=default;strokeWidth=2;fontFamily=Helvetica;fontSize=17;fontColor=default;endArrow=classic;" parent="1" source="yU_KCwu2seXqngZKDWk1-96" target="yU_KCwu2seXqngZKDWk1-98" edge="1">
          <mxGeometry relative="1" as="geometry" />
        </mxCell>
        <mxCell id="yU_KCwu2seXqngZKDWk1-96" value="获取左右两侧同侧线路并计算" style="whiteSpace=wrap;html=1;fontSize=17;" parent="1" vertex="1">
          <mxGeometry x="1320" y="1280" width="120" height="60" as="geometry" />
        </mxCell>
        <mxCell id="yU_KCwu2seXqngZKDWk1-113" style="edgeStyle=orthogonalEdgeStyle;shape=connector;rounded=0;orthogonalLoop=1;jettySize=auto;html=1;exitX=1;exitY=0.5;exitDx=0;exitDy=0;entryX=0;entryY=0.5;entryDx=0;entryDy=0;labelBackgroundColor=default;strokeColor=default;strokeWidth=2;fontFamily=Helvetica;fontSize=17;fontColor=default;endArrow=classic;" parent="1" source="yU_KCwu2seXqngZKDWk1-98" target="yU_KCwu2seXqngZKDWk1-101" edge="1">
          <mxGeometry relative="1" as="geometry" />
        </mxCell>
        <mxCell id="yU_KCwu2seXqngZKDWk1-98" value="获取内层所有" style="whiteSpace=wrap;html=1;fontSize=17;" parent="1" vertex="1">
          <mxGeometry x="1320" y="1370" width="120" height="60" as="geometry" />
        </mxCell>
        <mxCell id="yU_KCwu2seXqngZKDWk1-100" style="edgeStyle=orthogonalEdgeStyle;shape=connector;rounded=0;orthogonalLoop=1;jettySize=auto;html=1;exitX=0.5;exitY=0;exitDx=0;exitDy=0;entryX=0.5;entryY=1;entryDx=0;entryDy=0;labelBackgroundColor=default;strokeColor=default;strokeWidth=2;fontFamily=Helvetica;fontSize=17;fontColor=default;endArrow=classic;" parent="1" source="yU_KCwu2seXqngZKDWk1-101" target="yU_KCwu2seXqngZKDWk1-104" edge="1">
          <mxGeometry relative="1" as="geometry" />
        </mxCell>
        <mxCell id="yU_KCwu2seXqngZKDWk1-118" style="edgeStyle=orthogonalEdgeStyle;shape=connector;rounded=0;orthogonalLoop=1;jettySize=auto;html=1;exitX=0.5;exitY=1;exitDx=0;exitDy=0;entryX=0.5;entryY=0;entryDx=0;entryDy=0;labelBackgroundColor=default;strokeColor=default;strokeWidth=2;fontFamily=Helvetica;fontSize=17;fontColor=default;endArrow=classic;" parent="1" source="yU_KCwu2seXqngZKDWk1-101" target="yU_KCwu2seXqngZKDWk1-115" edge="1">
          <mxGeometry relative="1" as="geometry" />
        </mxCell>
        <mxCell id="yU_KCwu2seXqngZKDWk1-101" value="遍历获取到线路&lt;div&gt;是否结束&lt;/div&gt;" style="rhombus;whiteSpace=wrap;html=1;fontSize=17;" parent="1" vertex="1">
          <mxGeometry x="1490" y="1330" width="170" height="140" as="geometry" />
        </mxCell>
        <mxCell id="yU_KCwu2seXqngZKDWk1-102" value="是" style="text;html=1;align=center;verticalAlign=middle;resizable=0;points=[];autosize=1;strokeColor=none;fillColor=none;fontSize=17;fontFamily=Helvetica;fontColor=default;" parent="1" vertex="1">
          <mxGeometry x="1570" y="1470" width="40" height="30" as="geometry" />
        </mxCell>
        <mxCell id="yU_KCwu2seXqngZKDWk1-103" style="edgeStyle=orthogonalEdgeStyle;shape=connector;rounded=0;orthogonalLoop=1;jettySize=auto;html=1;exitX=1;exitY=0.5;exitDx=0;exitDy=0;labelBackgroundColor=default;strokeColor=default;strokeWidth=2;fontFamily=Helvetica;fontSize=17;fontColor=default;endArrow=classic;" parent="1" source="yU_KCwu2seXqngZKDWk1-104" target="yU_KCwu2seXqngZKDWk1-106" edge="1">
          <mxGeometry relative="1" as="geometry" />
        </mxCell>
        <mxCell id="yU_KCwu2seXqngZKDWk1-104" value="根据线路类型与线路位置关系计算位置并获取轨道位置" style="whiteSpace=wrap;html=1;rounded=0;fontSize=17;" parent="1" vertex="1">
          <mxGeometry x="1507.5" y="1190" width="135" height="90" as="geometry" />
        </mxCell>
        <mxCell id="yU_KCwu2seXqngZKDWk1-185" style="edgeStyle=orthogonalEdgeStyle;shape=connector;rounded=0;orthogonalLoop=1;jettySize=auto;html=1;exitX=1;exitY=0.5;exitDx=0;exitDy=0;labelBackgroundColor=default;strokeColor=default;strokeWidth=2;fontFamily=Helvetica;fontSize=17;fontColor=default;endArrow=classic;" parent="1" source="yU_KCwu2seXqngZKDWk1-106" target="yU_KCwu2seXqngZKDWk1-109" edge="1">
          <mxGeometry relative="1" as="geometry" />
        </mxCell>
        <mxCell id="yU_KCwu2seXqngZKDWk1-106" value="根据线路两端点类型获取偏移位置" style="whiteSpace=wrap;html=1;rounded=0;fontSize=17;" parent="1" vertex="1">
          <mxGeometry x="1710" y="1205" width="120" height="60" as="geometry" />
        </mxCell>
        <mxCell id="yU_KCwu2seXqngZKDWk1-107" value="否" style="text;html=1;align=center;verticalAlign=middle;resizable=0;points=[];autosize=1;strokeColor=none;fillColor=none;fontSize=17;fontFamily=Helvetica;fontColor=default;" parent="1" vertex="1">
          <mxGeometry x="1570" y="1310" width="40" height="30" as="geometry" />
        </mxCell>
        <mxCell id="yU_KCwu2seXqngZKDWk1-186" style="edgeStyle=orthogonalEdgeStyle;shape=connector;rounded=0;orthogonalLoop=1;jettySize=auto;html=1;exitX=0.5;exitY=1;exitDx=0;exitDy=0;entryX=0.5;entryY=0;entryDx=0;entryDy=0;labelBackgroundColor=default;strokeColor=default;strokeWidth=2;fontFamily=Helvetica;fontSize=17;fontColor=default;endArrow=classic;" parent="1" source="yU_KCwu2seXqngZKDWk1-109" target="yU_KCwu2seXqngZKDWk1-111" edge="1">
          <mxGeometry relative="1" as="geometry" />
        </mxCell>
        <mxCell id="yU_KCwu2seXqngZKDWk1-109" value="计算得出当前线路所有拐点位置并校验，并记录相关数据" style="whiteSpace=wrap;html=1;rounded=0;fontSize=17;" parent="1" vertex="1">
          <mxGeometry x="1870" y="1185" width="120" height="100" as="geometry" />
        </mxCell>
        <mxCell id="yU_KCwu2seXqngZKDWk1-110" style="edgeStyle=orthogonalEdgeStyle;shape=connector;rounded=0;orthogonalLoop=1;jettySize=auto;html=1;exitX=0;exitY=0.5;exitDx=0;exitDy=0;labelBackgroundColor=default;strokeColor=default;strokeWidth=2;fontFamily=Helvetica;fontSize=17;fontColor=default;endArrow=classic;" parent="1" source="yU_KCwu2seXqngZKDWk1-111" target="yU_KCwu2seXqngZKDWk1-101" edge="1">
          <mxGeometry relative="1" as="geometry" />
        </mxCell>
        <mxCell id="yU_KCwu2seXqngZKDWk1-111" value="更新轨道位置信息" style="rounded=0;whiteSpace=wrap;html=1;fontFamily=Helvetica;fontSize=17;fontColor=default;" parent="1" vertex="1">
          <mxGeometry x="1870" y="1370" width="120" height="60" as="geometry" />
        </mxCell>
        <mxCell id="yU_KCwu2seXqngZKDWk1-115" value="结束" style="whiteSpace=wrap;html=1;fontSize=17;" parent="1" vertex="1">
          <mxGeometry x="1515" y="1530" width="120" height="60" as="geometry" />
        </mxCell>
        <mxCell id="yU_KCwu2seXqngZKDWk1-122" value="" style="edgeStyle=orthogonalEdgeStyle;shape=connector;rounded=0;orthogonalLoop=1;jettySize=auto;html=1;labelBackgroundColor=default;strokeColor=default;strokeWidth=2;fontFamily=Helvetica;fontSize=17;fontColor=default;endArrow=classic;" parent="1" source="yU_KCwu2seXqngZKDWk1-119" target="yU_KCwu2seXqngZKDWk1-121" edge="1">
          <mxGeometry relative="1" as="geometry" />
        </mxCell>
        <mxCell id="yU_KCwu2seXqngZKDWk1-119" value="进行分组排序，保证线路轨道顺序为单边递增" style="whiteSpace=wrap;html=1;fontSize=17;" parent="1" vertex="1">
          <mxGeometry x="970" y="832.5" width="120" height="85" as="geometry" />
        </mxCell>
        <mxCell id="yU_KCwu2seXqngZKDWk1-189" style="edgeStyle=orthogonalEdgeStyle;shape=connector;rounded=0;orthogonalLoop=1;jettySize=auto;html=1;exitX=1;exitY=0.5;exitDx=0;exitDy=0;entryX=0;entryY=0.5;entryDx=0;entryDy=0;labelBackgroundColor=default;strokeColor=default;strokeWidth=2;fontFamily=Helvetica;fontSize=17;fontColor=default;endArrow=classic;" parent="1" source="yU_KCwu2seXqngZKDWk1-121" target="yU_KCwu2seXqngZKDWk1-115" edge="1">
          <mxGeometry relative="1" as="geometry">
            <Array as="points">
              <mxPoint x="1160" y="1030" />
              <mxPoint x="1160" y="1560" />
            </Array>
          </mxGeometry>
        </mxCell>
        <mxCell id="yU_KCwu2seXqngZKDWk1-191" style="edgeStyle=orthogonalEdgeStyle;shape=connector;rounded=0;orthogonalLoop=1;jettySize=auto;html=1;exitX=0;exitY=0.5;exitDx=0;exitDy=0;entryX=1;entryY=0.5;entryDx=0;entryDy=0;labelBackgroundColor=default;strokeColor=default;strokeWidth=2;fontFamily=Helvetica;fontSize=17;fontColor=default;endArrow=classic;" parent="1" source="yU_KCwu2seXqngZKDWk1-121" target="yU_KCwu2seXqngZKDWk1-126" edge="1">
          <mxGeometry relative="1" as="geometry" />
        </mxCell>
        <mxCell id="yU_KCwu2seXqngZKDWk1-121" value="遍历获取到线路&lt;div&gt;是否结束&lt;/div&gt;" style="rhombus;whiteSpace=wrap;html=1;fontSize=17;" parent="1" vertex="1">
          <mxGeometry x="960" y="960" width="140" height="140" as="geometry" />
        </mxCell>
        <mxCell id="yU_KCwu2seXqngZKDWk1-135" style="edgeStyle=orthogonalEdgeStyle;shape=connector;rounded=0;orthogonalLoop=1;jettySize=auto;html=1;exitX=0;exitY=0.5;exitDx=0;exitDy=0;entryX=1;entryY=0.5;entryDx=0;entryDy=0;labelBackgroundColor=default;strokeColor=default;strokeWidth=2;fontFamily=Helvetica;fontSize=17;fontColor=default;endArrow=classic;" parent="1" source="yU_KCwu2seXqngZKDWk1-126" target="yU_KCwu2seXqngZKDWk1-128" edge="1">
          <mxGeometry relative="1" as="geometry" />
        </mxCell>
        <mxCell id="yU_KCwu2seXqngZKDWk1-126" value="根据线路类型与线路位置关系计算位置并获取轨道位置" style="whiteSpace=wrap;html=1;rounded=0;fontSize=17;" parent="1" vertex="1">
          <mxGeometry x="770" y="990" width="120" height="80" as="geometry" />
        </mxCell>
        <mxCell id="yU_KCwu2seXqngZKDWk1-192" style="edgeStyle=orthogonalEdgeStyle;shape=connector;rounded=0;orthogonalLoop=1;jettySize=auto;html=1;exitX=0.5;exitY=1;exitDx=0;exitDy=0;entryX=0.5;entryY=0;entryDx=0;entryDy=0;labelBackgroundColor=default;strokeColor=default;strokeWidth=2;fontFamily=Helvetica;fontSize=17;fontColor=default;endArrow=classic;" parent="1" source="yU_KCwu2seXqngZKDWk1-128" target="yU_KCwu2seXqngZKDWk1-131" edge="1">
          <mxGeometry relative="1" as="geometry" />
        </mxCell>
        <mxCell id="yU_KCwu2seXqngZKDWk1-128" value="根据线路两端点类型获取偏移位置" style="whiteSpace=wrap;html=1;rounded=0;fontSize=17;" parent="1" vertex="1">
          <mxGeometry x="570" y="1000" width="120" height="60" as="geometry" />
        </mxCell>
        <mxCell id="yU_KCwu2seXqngZKDWk1-129" value="否" style="text;html=1;align=center;verticalAlign=middle;resizable=0;points=[];autosize=1;strokeColor=none;fillColor=none;fontSize=17;fontFamily=Helvetica;fontColor=default;" parent="1" vertex="1">
          <mxGeometry x="930" y="1000" width="40" height="30" as="geometry" />
        </mxCell>
        <mxCell id="yU_KCwu2seXqngZKDWk1-137" style="edgeStyle=orthogonalEdgeStyle;shape=connector;rounded=0;orthogonalLoop=1;jettySize=auto;html=1;exitX=1;exitY=0.5;exitDx=0;exitDy=0;labelBackgroundColor=default;strokeColor=default;strokeWidth=2;fontFamily=Helvetica;fontSize=17;fontColor=default;endArrow=classic;" parent="1" source="yU_KCwu2seXqngZKDWk1-131" target="yU_KCwu2seXqngZKDWk1-133" edge="1">
          <mxGeometry relative="1" as="geometry" />
        </mxCell>
        <mxCell id="yU_KCwu2seXqngZKDWk1-131" value="计算得出当前线路所有拐点位置并校验，并记录相关数据" style="whiteSpace=wrap;html=1;rounded=0;fontSize=17;" parent="1" vertex="1">
          <mxGeometry x="560" y="1150" width="140" height="100" as="geometry" />
        </mxCell>
        <mxCell id="yU_KCwu2seXqngZKDWk1-190" style="edgeStyle=orthogonalEdgeStyle;shape=connector;rounded=0;orthogonalLoop=1;jettySize=auto;html=1;exitX=1;exitY=0.5;exitDx=0;exitDy=0;entryX=0.5;entryY=1;entryDx=0;entryDy=0;labelBackgroundColor=default;strokeColor=default;strokeWidth=2;fontFamily=Helvetica;fontSize=17;fontColor=default;endArrow=classic;" parent="1" source="yU_KCwu2seXqngZKDWk1-133" target="yU_KCwu2seXqngZKDWk1-121" edge="1">
          <mxGeometry relative="1" as="geometry" />
        </mxCell>
        <mxCell id="yU_KCwu2seXqngZKDWk1-133" value="更新轨道位置信息" style="rounded=0;whiteSpace=wrap;html=1;fontFamily=Helvetica;fontSize=17;fontColor=default;" parent="1" vertex="1">
          <mxGeometry x="770" y="1170" width="120" height="60" as="geometry" />
        </mxCell>
        <mxCell id="yU_KCwu2seXqngZKDWk1-141" value="是" style="text;html=1;align=center;verticalAlign=middle;resizable=0;points=[];autosize=1;strokeColor=none;fillColor=none;fontSize=17;fontFamily=Helvetica;fontColor=default;" parent="1" vertex="1">
          <mxGeometry x="1100" y="1000" width="40" height="30" as="geometry" />
        </mxCell>
        <mxCell id="yU_KCwu2seXqngZKDWk1-168" style="edgeStyle=orthogonalEdgeStyle;shape=connector;rounded=0;orthogonalLoop=1;jettySize=auto;html=1;exitX=1;exitY=0.5;exitDx=0;exitDy=0;entryX=0;entryY=0.5;entryDx=0;entryDy=0;labelBackgroundColor=default;strokeColor=default;strokeWidth=2;fontFamily=Helvetica;fontSize=17;fontColor=default;endArrow=classic;" parent="1" source="yU_KCwu2seXqngZKDWk1-143" target="yU_KCwu2seXqngZKDWk1-147" edge="1">
          <mxGeometry relative="1" as="geometry" />
        </mxCell>
        <mxCell id="yU_KCwu2seXqngZKDWk1-143" value="获取所有线路预设线路类型以及相关可能线路" style="whiteSpace=wrap;html=1;rounded=0;fontSize=17;" parent="1" vertex="1">
          <mxGeometry x="1560" y="300" width="120" height="90" as="geometry" />
        </mxCell>
        <mxCell id="yU_KCwu2seXqngZKDWk1-169" style="edgeStyle=orthogonalEdgeStyle;shape=connector;rounded=0;orthogonalLoop=1;jettySize=auto;html=1;exitX=1;exitY=0.5;exitDx=0;exitDy=0;entryX=0;entryY=0.5;entryDx=0;entryDy=0;labelBackgroundColor=default;strokeColor=default;strokeWidth=2;fontFamily=Helvetica;fontSize=17;fontColor=default;endArrow=classic;" parent="1" source="yU_KCwu2seXqngZKDWk1-147" target="yU_KCwu2seXqngZKDWk1-151" edge="1">
          <mxGeometry relative="1" as="geometry" />
        </mxCell>
        <mxCell id="yU_KCwu2seXqngZKDWk1-170" style="edgeStyle=orthogonalEdgeStyle;shape=connector;rounded=0;orthogonalLoop=1;jettySize=auto;html=1;exitX=0.5;exitY=0;exitDx=0;exitDy=0;entryX=0.5;entryY=1;entryDx=0;entryDy=0;labelBackgroundColor=default;strokeColor=default;strokeWidth=2;fontFamily=Helvetica;fontSize=17;fontColor=default;endArrow=classic;" parent="1" source="yU_KCwu2seXqngZKDWk1-147" target="yU_KCwu2seXqngZKDWk1-149" edge="1">
          <mxGeometry relative="1" as="geometry" />
        </mxCell>
        <mxCell id="yU_KCwu2seXqngZKDWk1-147" value="随机处理线路选取&lt;br style=&quot;font-size: 17px;&quot;&gt;并判断是否重叠" style="rhombus;whiteSpace=wrap;html=1;rounded=0;fontSize=17;" parent="1" vertex="1">
          <mxGeometry x="1720" y="280" width="180" height="130" as="geometry" />
        </mxCell>
        <mxCell id="yU_KCwu2seXqngZKDWk1-172" style="edgeStyle=orthogonalEdgeStyle;shape=connector;rounded=0;orthogonalLoop=1;jettySize=auto;html=1;exitX=1;exitY=0.5;exitDx=0;exitDy=0;entryX=0;entryY=0.5;entryDx=0;entryDy=0;labelBackgroundColor=default;strokeColor=default;strokeWidth=2;fontFamily=Helvetica;fontSize=17;fontColor=default;endArrow=classic;" parent="1" source="yU_KCwu2seXqngZKDWk1-149" target="yU_KCwu2seXqngZKDWk1-155" edge="1">
          <mxGeometry relative="1" as="geometry" />
        </mxCell>
        <mxCell id="yU_KCwu2seXqngZKDWk1-149" value="重新计算获取更复杂线路" style="whiteSpace=wrap;html=1;rounded=0;fontSize=17;" parent="1" vertex="1">
          <mxGeometry x="1750" y="190" width="120" height="60" as="geometry" />
        </mxCell>
        <mxCell id="yU_KCwu2seXqngZKDWk1-181" style="edgeStyle=orthogonalEdgeStyle;shape=connector;rounded=0;orthogonalLoop=1;jettySize=auto;html=1;exitX=0.5;exitY=1;exitDx=0;exitDy=0;entryX=1;entryY=0.5;entryDx=0;entryDy=0;labelBackgroundColor=default;strokeColor=default;strokeWidth=2;fontFamily=Helvetica;fontSize=17;fontColor=default;endArrow=classic;" parent="1" source="yU_KCwu2seXqngZKDWk1-151" target="yU_KCwu2seXqngZKDWk1-161" edge="1">
          <mxGeometry relative="1" as="geometry" />
        </mxCell>
        <mxCell id="yU_KCwu2seXqngZKDWk1-151" value="记录线路位置信息并存储至校验层" style="whiteSpace=wrap;html=1;rounded=0;fontSize=17;" parent="1" vertex="1">
          <mxGeometry x="1950" y="315" width="120" height="60" as="geometry" />
        </mxCell>
        <mxCell id="yU_KCwu2seXqngZKDWk1-153" value="是" style="text;html=1;align=center;verticalAlign=middle;resizable=0;points=[];autosize=1;strokeColor=none;fillColor=none;fontSize=17;fontFamily=Helvetica;fontColor=default;" parent="1" vertex="1">
          <mxGeometry x="2000" y="125" width="40" height="30" as="geometry" />
        </mxCell>
        <mxCell id="yU_KCwu2seXqngZKDWk1-173" style="edgeStyle=orthogonalEdgeStyle;shape=connector;rounded=0;orthogonalLoop=1;jettySize=auto;html=1;exitX=0.5;exitY=0;exitDx=0;exitDy=0;entryX=0.5;entryY=0;entryDx=0;entryDy=0;labelBackgroundColor=default;strokeColor=default;strokeWidth=2;fontFamily=Helvetica;fontSize=17;fontColor=default;endArrow=classic;" parent="1" source="yU_KCwu2seXqngZKDWk1-155" target="yU_KCwu2seXqngZKDWk1-149" edge="1">
          <mxGeometry relative="1" as="geometry" />
        </mxCell>
        <mxCell id="yU_KCwu2seXqngZKDWk1-182" style="edgeStyle=orthogonalEdgeStyle;shape=connector;rounded=0;orthogonalLoop=1;jettySize=auto;html=1;exitX=0.5;exitY=1;exitDx=0;exitDy=0;entryX=0.5;entryY=0;entryDx=0;entryDy=0;labelBackgroundColor=default;strokeColor=default;strokeWidth=2;fontFamily=Helvetica;fontSize=17;fontColor=default;endArrow=classic;" parent="1" source="yU_KCwu2seXqngZKDWk1-155" target="yU_KCwu2seXqngZKDWk1-151" edge="1">
          <mxGeometry relative="1" as="geometry" />
        </mxCell>
        <mxCell id="yU_KCwu2seXqngZKDWk1-155" value="随机处理线路选取&lt;br style=&quot;font-size: 17px;&quot;&gt;并判断是否重叠" style="rhombus;whiteSpace=wrap;html=1;rounded=0;fontSize=17;" parent="1" vertex="1">
          <mxGeometry x="1930" y="155" width="160" height="130" as="geometry" />
        </mxCell>
        <mxCell id="yU_KCwu2seXqngZKDWk1-171" style="edgeStyle=orthogonalEdgeStyle;shape=connector;rounded=0;orthogonalLoop=1;jettySize=auto;html=1;exitX=0.5;exitY=0;exitDx=0;exitDy=0;entryX=0.5;entryY=1;entryDx=0;entryDy=0;labelBackgroundColor=default;strokeColor=default;strokeWidth=2;fontFamily=Helvetica;fontSize=17;fontColor=default;endArrow=classic;" parent="1" source="yU_KCwu2seXqngZKDWk1-161" target="yU_KCwu2seXqngZKDWk1-143" edge="1">
          <mxGeometry relative="1" as="geometry" />
        </mxCell>
        <mxCell id="yU_KCwu2seXqngZKDWk1-187" style="edgeStyle=orthogonalEdgeStyle;shape=connector;rounded=0;orthogonalLoop=1;jettySize=auto;html=1;exitX=0.5;exitY=1;exitDx=0;exitDy=0;entryX=1;entryY=0.5;entryDx=0;entryDy=0;labelBackgroundColor=default;strokeColor=default;strokeWidth=2;fontFamily=Helvetica;fontSize=17;fontColor=default;endArrow=classic;" parent="1" source="yU_KCwu2seXqngZKDWk1-161" target="yU_KCwu2seXqngZKDWk1-115" edge="1">
          <mxGeometry relative="1" as="geometry">
            <Array as="points">
              <mxPoint x="1620" y="650" />
              <mxPoint x="2050" y="650" />
              <mxPoint x="2050" y="1560" />
            </Array>
          </mxGeometry>
        </mxCell>
        <mxCell id="yU_KCwu2seXqngZKDWk1-161" value="打乱顺序并&lt;br style=&quot;font-size: 17px;&quot;&gt;遍历所有线路是否结束" style="rhombus;whiteSpace=wrap;html=1;fontFamily=Helvetica;fontSize=17;fontColor=default;" parent="1" vertex="1">
          <mxGeometry x="1545" y="420" width="150" height="130" as="geometry" />
        </mxCell>
        <mxCell id="yU_KCwu2seXqngZKDWk1-163" value="否" style="text;html=1;align=center;verticalAlign=middle;resizable=0;points=[];autosize=1;strokeColor=none;fillColor=none;fontSize=17;fontFamily=Helvetica;fontColor=default;" parent="1" vertex="1">
          <mxGeometry x="1620" y="410" width="40" height="30" as="geometry" />
        </mxCell>
        <mxCell id="yU_KCwu2seXqngZKDWk1-165" value="是" style="text;html=1;align=center;verticalAlign=middle;resizable=0;points=[];autosize=1;strokeColor=none;fillColor=none;fontSize=17;fontFamily=Helvetica;fontColor=default;" parent="1" vertex="1">
          <mxGeometry x="1620" y="565" width="40" height="30" as="geometry" />
        </mxCell>
        <mxCell id="yU_KCwu2seXqngZKDWk1-174" value="是" style="text;html=1;align=center;verticalAlign=middle;resizable=0;points=[];autosize=1;strokeColor=none;fillColor=none;fontSize=17;fontFamily=Helvetica;fontColor=default;" parent="1" vertex="1">
          <mxGeometry x="1465" y="470" width="40" height="30" as="geometry" />
        </mxCell>
        <mxCell id="yU_KCwu2seXqngZKDWk1-177" value="是" style="text;html=1;align=center;verticalAlign=middle;resizable=0;points=[];autosize=1;strokeColor=none;fillColor=none;fontSize=17;fontFamily=Helvetica;fontColor=default;" parent="1" vertex="1">
          <mxGeometry x="1810" y="260" width="40" height="30" as="geometry" />
        </mxCell>
        <mxCell id="yU_KCwu2seXqngZKDWk1-178" value="否" style="text;html=1;align=center;verticalAlign=middle;resizable=0;points=[];autosize=1;strokeColor=none;fillColor=none;fontSize=17;fontFamily=Helvetica;fontColor=default;" parent="1" vertex="1">
          <mxGeometry x="1910" y="320" width="40" height="30" as="geometry" />
        </mxCell>
        <mxCell id="yU_KCwu2seXqngZKDWk1-183" value="否" style="text;html=1;align=center;verticalAlign=middle;resizable=0;points=[];autosize=1;strokeColor=none;fillColor=none;fontSize=17;fontFamily=Helvetica;fontColor=default;" parent="1" vertex="1">
          <mxGeometry x="2030" y="280" width="40" height="30" as="geometry" />
        </mxCell>
      </root>
    </mxGraphModel>
  </diagram>
</mxfile>
